<svg width="28" height="28" viewBox="0 0 28 28" fill="none" xmlns="http://www.w3.org/2000/svg">
<path fill-rule="evenodd" clip-rule="evenodd" d="M20.62 14.5587H20.6219V18.3712C20.6219 20.0736 21.7318 21.1766 23.4321 21.2006H25.6047C26.5494 21.2246 27.1397 21.8 27.1397 22.7352C27.1634 23.9101 27.1634 25.109 27.1634 26.284C27.187 27.0752 26.5966 27.7466 25.7937 27.7706H25.6756C24.4712 27.7946 23.2905 27.7946 22.0861 27.7706C21.3068 27.7946 20.6455 27.1711 20.6219 26.3799V26.26V23.8382C20.5983 22.2077 19.5829 21.1526 17.9534 21.1526H10.3257C8.01138 21.1766 6.5 19.642 6.5 17.3161V10.6262C6.5 10.4842 6.506 10.3449 6.51781 10.2086V9.51494C6.54143 8.0283 5.36066 6.82939 3.89652 6.80541H1.53499C0.566766 6.78143 0 6.22994 0 5.24683V1.74603C0 0.786901 0.566766 0.211426 1.53499 0.211426H4.95921C5.95105 0.211426 6.51781 0.786901 6.51781 1.77V3.97599C6.51781 5.79833 7.50965 6.80541 9.30441 6.80541H16.9085C19.1284 6.80541 20.62 8.34001 20.62 10.6179V14.5587Z" fill="#0098C5"/>
<path d="M9 12.5C9 10.8431 10.3431 9.5 12 9.5H15C16.6569 9.5 18 10.8431 18 12.5V15.5C18 17.1569 16.6569 18.5 15 18.5H12C10.3431 18.5 9 17.1569 9 15.5V12.5Z" fill="#114E85"/>
</svg>
